<svg width="149" height="28" viewBox="0 0 149 28" fill="none" xmlns="http://www.w3.org/2000/svg">
<path d="M2.69336 1.40625H7.1582L13.7324 20.1973L20.3066 1.40625H24.7715L15.5254 27H11.9395L2.69336 1.40625ZM0.285156 1.40625H4.73242L5.54102 19.7227V27H0.285156V1.40625ZM22.7324 1.40625H27.1973V27H21.9238V19.7227L22.7324 1.40625ZM40.2578 27.3516C38.7812 27.3516 37.457 27.1172 36.2852 26.6484C35.1133 26.168 34.1172 25.5059 33.2969 24.6621C32.4883 23.8184 31.8672 22.8398 31.4336 21.7266C31 20.6016 30.7832 19.4062 30.7832 18.1406V17.4375C30.7832 15.9961 30.9883 14.6777 31.3984 13.4824C31.8086 12.2871 32.3945 11.25 33.1562 10.3711C33.9297 9.49219 34.8672 8.81836 35.9688 8.34961C37.0703 7.86914 38.3125 7.62891 39.6953 7.62891C41.043 7.62891 42.2383 7.85156 43.2812 8.29688C44.3242 8.74219 45.1973 9.375 45.9004 10.1953C46.6152 11.0156 47.1543 12 47.5176 13.1484C47.8809 14.2852 48.0625 15.5508 48.0625 16.9453V19.0547H32.9453V15.6797H43.0879V15.293C43.0879 14.5898 42.959 13.9629 42.7012 13.4121C42.4551 12.8496 42.0801 12.4043 41.5762 12.0762C41.0723 11.748 40.4277 11.584 39.6426 11.584C38.9746 11.584 38.4004 11.7305 37.9199 12.0234C37.4395 12.3164 37.0469 12.7266 36.7422 13.2539C36.4492 13.7812 36.2266 14.4023 36.0742 15.1172C35.9336 15.8203 35.8633 16.5938 35.8633 17.4375V18.1406C35.8633 18.9023 35.9688 19.6055 36.1797 20.25C36.4023 20.8945 36.7129 21.4512 37.1113 21.9199C37.5215 22.3887 38.0137 22.752 38.5879 23.0098C39.1738 23.2676 39.8359 23.3965 40.5742 23.3965C41.4883 23.3965 42.3379 23.2207 43.123 22.8691C43.9199 22.5059 44.6055 21.9609 45.1797 21.2344L47.6406 23.9062C47.2422 24.4805 46.6973 25.0312 46.0059 25.5586C45.3262 26.0859 44.5059 26.5195 43.5449 26.8594C42.584 27.1875 41.4883 27.3516 40.2578 27.3516ZM60.2617 7.98047V11.5664H49.1875V7.98047H60.2617ZM51.9297 3.28711H56.9922V21.2695C56.9922 21.8203 57.0625 22.2422 57.2031 22.5352C57.3555 22.8281 57.5781 23.0332 57.8711 23.1504C58.1641 23.2559 58.5332 23.3086 58.9785 23.3086C59.2949 23.3086 59.5762 23.2969 59.8223 23.2734C60.0801 23.2383 60.2969 23.2031 60.4727 23.168L60.4902 26.8945C60.0566 27.0352 59.5879 27.1465 59.084 27.2285C58.5801 27.3105 58.0234 27.3516 57.4141 27.3516C56.3008 27.3516 55.3281 27.1699 54.4961 26.8066C53.6758 26.4316 53.043 25.834 52.5977 25.0137C52.1523 24.1934 51.9297 23.1152 51.9297 21.7793V3.28711ZM68.207 12.1289V27H63.1445V7.98047H67.9082L68.207 12.1289ZM73.9375 7.85742L73.8496 12.5508C73.6035 12.5156 73.3047 12.4863 72.9531 12.4629C72.6133 12.4277 72.3027 12.4102 72.0215 12.4102C71.3066 12.4102 70.6855 12.5039 70.1582 12.6914C69.6426 12.8672 69.209 13.1309 68.8574 13.4824C68.5176 13.834 68.2598 14.2617 68.084 14.7656C67.9199 15.2695 67.8262 15.8438 67.8027 16.4883L66.7832 16.1719C66.7832 14.9414 66.9062 13.8105 67.1523 12.7793C67.3984 11.7363 67.7559 10.8281 68.2246 10.0547C68.7051 9.28125 69.291 8.68359 69.9824 8.26172C70.6738 7.83984 71.4648 7.62891 72.3555 7.62891C72.6367 7.62891 72.9238 7.65234 73.2168 7.69922C73.5098 7.73438 73.75 7.78711 73.9375 7.85742ZM74.9922 17.6836V17.3145C74.9922 15.9199 75.1914 14.6367 75.5898 13.4648C75.9883 12.2812 76.5684 11.2559 77.3301 10.3887C78.0918 9.52148 79.0293 8.84766 80.1426 8.36719C81.2559 7.875 82.5332 7.62891 83.9746 7.62891C85.416 7.62891 86.6992 7.875 87.8242 8.36719C88.9492 8.84766 89.8926 9.52148 90.6543 10.3887C91.4277 11.2559 92.0137 12.2812 92.4121 13.4648C92.8105 14.6367 93.0098 15.9199 93.0098 17.3145V17.6836C93.0098 19.0664 92.8105 20.3496 92.4121 21.5332C92.0137 22.7051 91.4277 23.7305 90.6543 24.6094C89.8926 25.4766 88.9551 26.1504 87.8418 26.6309C86.7285 27.1113 85.4512 27.3516 84.0098 27.3516C82.5684 27.3516 81.2852 27.1113 80.1602 26.6309C79.0469 26.1504 78.1035 25.4766 77.3301 24.6094C76.5684 23.7305 75.9883 22.7051 75.5898 21.5332C75.1914 20.3496 74.9922 19.0664 74.9922 17.6836ZM80.0547 17.3145V17.6836C80.0547 18.4805 80.125 19.2246 80.2656 19.916C80.4062 20.6074 80.6289 21.2168 80.9336 21.7441C81.25 22.2598 81.6602 22.6641 82.1641 22.957C82.668 23.25 83.2832 23.3965 84.0098 23.3965C84.7129 23.3965 85.3164 23.25 85.8203 22.957C86.3242 22.6641 86.7285 22.2598 87.0332 21.7441C87.3379 21.2168 87.5605 20.6074 87.7012 19.916C87.8535 19.2246 87.9297 18.4805 87.9297 17.6836V17.3145C87.9297 16.541 87.8535 15.8145 87.7012 15.1348C87.5605 14.4434 87.332 13.834 87.0156 13.3066C86.7109 12.7676 86.3066 12.3457 85.8027 12.041C85.2988 11.7363 84.6895 11.584 83.9746 11.584C83.2598 11.584 82.6504 11.7363 82.1465 12.041C81.6543 12.3457 81.25 12.7676 80.9336 13.3066C80.6289 13.834 80.4062 14.4434 80.2656 15.1348C80.125 15.8145 80.0547 16.541 80.0547 17.3145ZM100.516 1.40625V27H97.123V1.40625H100.516ZM111.238 12.9199V15.6973H99.7773V12.9199H111.238ZM112.979 1.40625V4.18359H99.7773V1.40625H112.979ZM120.062 0V27H116.793V0H120.062ZM128.816 7.98047V27H125.547V7.98047H128.816ZM125.301 2.93555C125.301 2.4082 125.459 1.96289 125.775 1.59961C126.104 1.23633 126.584 1.05469 127.217 1.05469C127.838 1.05469 128.312 1.23633 128.641 1.59961C128.98 1.96289 129.15 2.4082 129.15 2.93555C129.15 3.43945 128.98 3.87305 128.641 4.23633C128.312 4.58789 127.838 4.76367 127.217 4.76367C126.584 4.76367 126.104 4.58789 125.775 4.23633C125.459 3.87305 125.301 3.43945 125.301 2.93555ZM136.234 7.98047L140.4 14.9062L144.619 7.98047H148.434L142.211 17.3672L148.627 27H144.865L140.471 19.8633L136.076 27H132.297L138.695 17.3672L132.49 7.98047H136.234Z" fill="black"/>
</svg>
